<?xml version="1.0" standalone="no"?>
<!DOCTYPE svg PUBLIC "-//W3C//DTD SVG 20010904//EN"
 "http://www.w3.org/TR/2001/REC-SVG-20010904/DTD/svg10.dtd">
<svg version="1.0" xmlns="http://www.w3.org/2000/svg"
 width="500.000000pt" height="500.000000pt" viewBox="0 0 500.000000 500.000000"
 preserveAspectRatio="xMidYMid meet">

<g transform="translate(0.000000,500.000000) scale(0.100000,-0.100000)"
fill="#000000" stroke="none">
<path d="M2225 4205 c-142 -19 -233 -40 -368 -85 -261 -88 -499 -239 -693
-442 -540 -565 -641 -1487 -236 -2163 127 -212 355 -446 565 -578 82 -52 239
-130 327 -161 100 -36 269 -79 286 -72 8 3 14 1 14 -4 0 -6 9 -10 20 -10 16 0
20 7 20 30 0 25 4 30 23 30 17 0 28 -10 39 -34 9 -18 26 -36 37 -39 25 -6 25
-7 4 37 -16 34 -16 37 2 55 23 26 22 68 -1 91 -11 10 -42 21 -70 25 l-51 6 -7
-47 c-3 -26 -6 -60 -6 -75 0 -35 -6 -36 -120 -8 -617 147 -1121 669 -1250
1291 -123 596 47 1202 451 1615 135 138 242 218 410 307 370 195 790 252 1224
165 657 -132 1186 -670 1315 -1336 11 -59 22 -108 24 -110 2 -2 9 4 17 13 29
35 -33 285 -120 481 -177 404 -533 746 -941 906 -282 111 -614 151 -915 112z
m23 -3378 c5 -26 -17 -47 -49 -47 -26 0 -29 3 -29 33 0 19 2 36 5 39 12 12 70
-8 73 -25z"/>
<path d="M1685 3266 c-38 -8 -110 -26 -160 -41 -145 -42 -190 -71 -147 -94 14
-8 44 -2 125 24 307 100 533 79 655 -59 67 -76 89 -195 57 -311 -36 -133 -127
-205 -259 -205 -39 0 -89 5 -111 10 -27 6 -51 6 -74 -1 -30 -10 -33 -14 -27
-41 3 -17 22 -69 41 -116 79 -195 206 -382 327 -483 58 -48 186 -119 215 -119
22 0 14 -18 -18 -41 -38 -27 -113 -36 -163 -19 -20 6 -64 30 -97 52 -55 37
-64 40 -97 32 -49 -12 -50 -28 -4 -59 133 -88 299 -96 424 -21 43 26 70 34
124 39 107 9 254 68 254 102 0 26 -38 25 -111 -4 -41 -16 -93 -31 -116 -34
l-42 -5 18 36 c50 98 77 233 90 450 5 79 11 145 13 147 2 3 26 -3 53 -11 28
-8 91 -18 140 -21 222 -13 418 84 493 245 24 52 27 68 27 172 0 105 -3 120
-28 171 -47 97 -145 170 -267 200 -73 18 -256 15 -349 -5 -104 -23 -288 -85
-302 -103 -9 -10 -9 -17 -2 -24 8 -8 46 1 129 30 118 40 264 71 333 71 55 0
169 -27 215 -51 110 -56 167 -151 174 -290 8 -162 -48 -268 -175 -331 -65 -32
-72 -33 -183 -33 -111 0 -118 1 -183 33 -41 21 -71 42 -76 55 -5 12 -11 94
-15 182 -3 88 -9 177 -12 198 -6 34 -9 37 -38 37 -62 0 -67 -12 -57 -125 36
-388 16 -761 -51 -952 -26 -74 -33 -76 -122 -34 -115 56 -243 181 -340 334
-42 65 -126 234 -126 253 0 8 14 10 44 7 24 -3 75 0 112 6 195 34 319 164 331
348 13 183 -73 317 -246 384 -71 28 -287 36 -396 15z"/>
<path d="M1534 3080 c-12 -5 -24 -12 -27 -17 -2 -4 2 -48 9 -98 24 -155 29
-508 10 -671 -9 -78 -23 -167 -31 -198 -8 -31 -15 -61 -15 -66 0 -11 34 -13
68 -4 26 7 42 56 69 209 29 169 22 630 -13 823 -7 34 -26 40 -70 22z"/>
<path d="M4182 2660 c-30 -19 -35 -19 -55 -5 -30 21 -59 19 -85 -5 -17 -17
-22 -32 -22 -75 l0 -55 100 0 c93 0 100 1 100 20 0 16 -7 20 -35 20 -28 0 -35
4 -35 19 0 11 15 28 35 41 20 13 35 30 35 41 0 23 2 23 -38 -1z m-64 -72 c3
-37 3 -38 -32 -38 -34 0 -36 2 -36 33 0 41 7 49 40 45 21 -3 25 -9 28 -40z"/>
<path d="M4015 2343 c-3 -21 -8 -50 -10 -65 -5 -31 0 -33 90 -43 33 -4 70 -9
81 -12 19 -4 23 1 29 39 3 24 8 55 11 71 4 19 2 27 -9 27 -18 0 -27 -21 -27
-60 0 -34 -12 -44 -41 -35 -18 6 -21 13 -16 45 3 26 1 40 -8 44 -9 3 -15 -9
-20 -40 -6 -44 -17 -52 -44 -35 -10 7 -12 21 -8 55 5 36 4 46 -8 46 -9 0 -16
-14 -20 -37z"/>
<path d="M3967 2090 c-4 -14 8 -21 54 -35 33 -10 59 -21 59 -24 0 -4 -33 -19
-74 -34 -105 -39 -104 -51 2 -83 108 -33 105 -32 109 -14 3 12 -14 22 -59 36
l-63 21 79 29 c68 25 98 46 85 59 -2 2 -45 17 -96 33 -84 27 -92 28 -96 12z"/>
<path d="M3857 1796 c-4 -10 13 -25 51 -47 l57 -33 -85 -16 c-57 -11 -86 -21
-88 -31 -2 -13 142 -99 167 -99 28 0 6 31 -39 56 -28 15 -48 30 -44 33 3 3 40
12 81 21 42 8 78 20 80 26 3 9 -153 104 -171 104 -2 0 -6 -6 -9 -14z"/>
<path d="M3655 1480 c-7 -11 -1 -23 57 -123 29 -49 43 -66 51 -58 7 7 7 18 -1
37 -11 22 -9 29 11 53 18 22 28 26 49 20 18 -5 31 -3 38 6 9 10 -9 20 -82 44
-101 34 -114 36 -123 21z m107 -49 c4 -3 -1 -17 -11 -30 l-18 -23 -21 36 c-12
21 -22 39 -22 41 0 5 63 -16 72 -24z"/>
<path d="M3426 1251 c-7 -11 112 -151 128 -151 21 1 98 81 92 97 -5 12 -15 7
-47 -22 l-41 -37 -49 54 c-26 29 -48 56 -49 61 0 10 -28 9 -34 -2z"/>
<path d="M3232 1114 l-43 -26 17 -26 c10 -15 33 -53 52 -84 19 -32 38 -58 43
-58 17 0 19 21 4 50 -8 16 -12 30 -7 30 20 0 62 50 62 75 0 31 -32 65 -62 65
-13 0 -42 -12 -66 -26z m82 -20 c20 -20 20 -27 -1 -46 -35 -29 -42 -29 -58 3
-9 17 -15 32 -13 33 9 8 44 25 50 26 4 0 14 -7 22 -16z"/>
<path d="M2882 951 c-10 -6 -9 -18 3 -57 8 -27 15 -55 15 -62 0 -7 -32 11 -71
39 -89 65 -98 59 -68 -49 26 -97 34 -111 50 -95 8 8 7 24 -4 64 -9 29 -14 55
-12 57 2 2 32 -17 66 -42 97 -71 103 -65 67 62 -24 87 -28 94 -46 83z"/>
<path d="M2569 883 c0 -5 0 -38 1 -74 1 -70 -13 -99 -49 -99 -31 0 -49 33 -56
103 -10 93 -30 84 -29 -13 0 -67 3 -75 28 -96 47 -41 115 -24 137 33 13 36 0
153 -17 153 -8 0 -14 -3 -15 -7z"/>
</g>
</svg>
